# xmcd
#
# Track frame offsets: 
#        150
#        14451
#        31281
#        45867
#        61978
#        75853
#        92499
#        104920
#        118227
#        131044
#        145542
#        162335
#        174791
#        188756
#
# Disc length: 2708 seconds
#
# Revision: 1
# Processed by: cddbd v1.5.2PL0 Copyright (c) Steve Scherf et al.
# Submitted via: ExactAudioCopy v0.99pb3
#
DISCID=aa0a920e
DTITLE=Nelson Goncalves - Duetos
DYEAR=2006
DGENRE=MPB
TTITLE0=Renuncia - com Tim Maia
TTITLE1=Maria Bethania - com Caetano Veloso
TTITLE2=Louco (Ela e Seu Mundo) - com Alcione
TTITLE3=Mucuripe - com Fagner
TTITLE4=Caminhemos - com Maria Bethania
TTITLE5=Asa Branca - com Luiz Gonzaga
TTITLE6=Valsinha - com Chico Buarque
TTITLE7=Lembrancas - com Martinho da Vila
TTITLE8=Dos Meus Bracos Tu Nao Sairas - com Gal Costa
TTITLE9=Castigo - com Zizi Possi
TTITLE10=Nao Tem Solucao - So Louco - Nem Eu - com Nana Caymmi
TTITLE11=O Negocio h Amar - com Fafa de Belem
TTITLE12=Perfidia - com Montserrat
TTITLE13=Nunca - com Ivo Pessoa
EXTD=
EXTT0=
EXTT1=
EXTT2=
EXTT3=
EXTT4=
EXTT5=
EXTT6=
EXTT7=
EXTT8=
EXTT9=
EXTT10=
EXTT11=
EXTT12=
EXTT13=
PLAYORDER=
